<svg xmlns="http://www.w3.org/2000/svg" viewBox="0 0 450.16 133.9"><path d="M39.84,53.06,53.61,69.34,39.83,85.27,28.7,71.86a4,4,0,0,1,0-5Z" transform="translate(-2.07 -1.67)" fill="#fff"></path><path d="M138.55,129a4,4,0,0,1-3,6.55H83.42a4,4,0,0,1-3-1.43L56.55,105.42h0L84.41,71.85a4,4,0,0,0,0-5L56.56,32.46,80.36,3.13a4,4,0,0,1,3.08-1.46h52.23a4,4,0,0,1,3,6.52L89.16,66.76a4,4,0,0,0,0,5.16Z" transform="translate(-2.07 -1.67)" fill="#fff"></path><path d="M167,18.13h14.45V79L207,47.64A12.51,12.51,0,0,1,216.71,43h12.43l-31,37.33,34.15,37.33H212.69L181.44,81.73v36H167Z" transform="translate(-2.07 -1.67)" fill="#fff"></path><path d="M289.41,76.62q0-11.07-5-16.56t-13.89-5.5a21.66,21.66,0,0,0-8,1.38,16,16,0,0,0-6,4.12,18.21,18.21,0,0,0-3.8,6.88,32,32,0,0,0-1.31,9.68v41.06H237V43h14.45v10.3a26.11,26.11,0,0,1,3.35-4.81,20.47,20.47,0,0,1,4.74-3.94,24.14,24.14,0,0,1,6.36-2.66,31.57,31.57,0,0,1,8.15-1,36,36,0,0,1,12.2,2,24.32,24.32,0,0,1,9.41,6,27.34,27.34,0,0,1,6.05,10.23,45,45,0,0,1,2.14,14.62v43.9H289.41Z" transform="translate(-2.07 -1.67)" fill="#fff"></path><path d="M347.34,119.75a37.69,37.69,0,0,1-15.1-2.9,33.13,33.13,0,0,1-11.51-8.12,36.44,36.44,0,0,1-7.37-12.48,47.38,47.38,0,0,1-2.59-16,47.38,47.38,0,0,1,2.59-16,35.73,35.73,0,0,1,7.4-12.44,33.19,33.19,0,0,1,11.55-8.06,38,38,0,0,1,15-2.87,38.51,38.51,0,0,1,15.14,2.87A32.64,32.64,0,0,1,374,51.9a36.52,36.52,0,0,1,7.36,12.44A46.88,46.88,0,0,1,384,80.28a47.38,47.38,0,0,1-2.59,16A36.42,36.42,0,0,1,374,108.8a32.62,32.62,0,0,1-11.55,8.08A38.33,38.33,0,0,1,347.34,119.75Zm0-13.62a22,22,0,0,0,9.16-1.79,17.9,17.9,0,0,0,6.67-5.15A23,23,0,0,0,367.25,91a38.91,38.91,0,0,0,1.38-10.75,38.85,38.85,0,0,0-1.38-10.79,22.53,22.53,0,0,0-4.08-8.08,17.65,17.65,0,0,0-6.67-5.09,22.47,22.47,0,0,0-9.16-1.76,22.19,22.19,0,0,0-9.23,1.8,17.72,17.72,0,0,0-6.63,5.11,22.57,22.57,0,0,0-4,8.09,39.39,39.39,0,0,0-1.35,10.72A39.22,39.22,0,0,0,327.5,91.1a22.56,22.56,0,0,0,4.08,8.12,18.12,18.12,0,0,0,6.67,5.12A21.82,21.82,0,0,0,347.34,106.13Z" transform="translate(-2.07 -1.67)" fill="#fff"></path><path d="M379.65,117.68l27.93-37.75L380.27,43h17.15L416,68.66,434.4,43h17.15L424.24,79.93l28,37.75H435L416,91.2l-19.15,26.48Z" transform="translate(-2.07 -1.67)" fill="#fff"></path><path d="M31.64,32.46H6.05A4,4,0,0,0,3,39L26.5,66.75a4,4,0,0,1,0,5.16l-23.3,27a4,4,0,0,0,3,6.56H29.78a4,4,0,0,0,3-1.43L59.49,71.85a4,4,0,0,0,0-5Z" transform="translate(-2.07 -1.67)" fill="#fff"></path></svg>