<svg xmlns="http://www.w3.org/2000/svg" viewBox="0 0 450.1639 133.8986"><path d="M39.7939,54.2981l13.7649,16.278L39.7844,86.5042,28.6566,73.0892a3.9655,3.9655,0,0,1-.0286-5.0326Z" transform="translate(-2.0277 -2.8999)" style="fill:#fff"></path><path d="M138.5024,130.2389a3.9666,3.9666,0,0,1-3.003,6.56H83.37a3.9663,3.9663,0,0,1-3.0508-1.4315L56.5014,106.6537h.01L84.3621,73.08a3.9654,3.9654,0,0,0,.0254-5.0326l-27.8734-34.35,23.8015-29.33A3.9687,3.9687,0,0,1,83.3982,2.9h52.2252a3.9656,3.9656,0,0,1,3.0285,6.5278L89.1147,67.9962a3.9638,3.9638,0,0,0,.0287,5.1566Z" transform="translate(-2.0277 -2.8999)" style="fill:#d5af45"></path><path d="M166.9458,19.3611h14.4485V80.1987L206.94,48.87a12.55,12.55,0,0,1,9.7262-4.6189h12.43l-30.9724,37.33,34.1523,37.3322H212.6428l-31.2485-35.95v35.95H166.9458Z" transform="translate(-2.0277 -2.8999)" style="fill:#fff"></path><path d="M289.3632,77.849q0-11.06-4.9774-16.5573t-13.8944-5.4962a21.6554,21.6554,0,0,0-7.9516,1.3824,15.8422,15.8422,0,0,0-6.0132,4.1138,18.1539,18.1539,0,0,0-3.8025,6.8787A32.1031,32.1031,0,0,0,251.41,77.849v41.0643H236.9617V44.2508H251.41V54.55a26.09,26.09,0,0,1,3.3523-4.805,20.5255,20.5255,0,0,1,4.7364-3.94,24.0729,24.0729,0,0,1,6.36-2.661,31.4462,31.4462,0,0,1,8.1573-.9692,35.9487,35.9487,0,0,1,12.2025,1.9717,24.2382,24.2382,0,0,1,9.4026,6.0133A27.4,27.4,0,0,1,301.67,60.393a44.7574,44.7574,0,0,1,2.1422,14.6208v43.9H289.3632Z" transform="translate(-2.0277 -2.8999)" style="fill:#fff"></path><path d="M347.2961,120.9869a37.8,37.8,0,0,1-15.1063-2.9038,33.1169,33.1169,0,0,1-11.51-8.122,36.3881,36.3881,0,0,1-7.3623-12.4787,47.1738,47.1738,0,0,1-2.5925-15.97,47.1744,47.1744,0,0,1,2.5925-15.97,35.703,35.703,0,0,1,7.3956-12.4434A33.313,33.313,0,0,1,332.26,45.0458a38.0266,38.0266,0,0,1,15.0359-2.87,38.4736,38.4736,0,0,1,15.14,2.8705,32.7,32.7,0,0,1,11.5447,8.0868,36.497,36.497,0,0,1,7.3641,12.4453,46.9122,46.9122,0,0,1,2.5925,15.9347,47.4232,47.4232,0,0,1-2.5925,16.0384,36.4019,36.4019,0,0,1-7.3641,12.4786,32.6821,32.6821,0,0,1-11.5447,8.0888A38.4751,38.4751,0,0,1,347.2961,120.9869Zm0-13.6183a22.0151,22.0151,0,0,0,9.16-1.7975,17.8932,17.8932,0,0,0,6.6711-5.1515,22.9991,22.9991,0,0,0,4.0786-8.1573,38.7875,38.7875,0,0,0,1.3824-10.75,38.7008,38.7008,0,0,0-1.3824-10.785,22.68,22.68,0,0,0-4.0786-8.0887,17.717,17.717,0,0,0-6.6711-5.0811,24.6413,24.6413,0,0,0-18.39.0352,17.757,17.757,0,0,0-6.6359,5.1145,22.5576,22.5576,0,0,0-4.01,8.0887,39.4114,39.4114,0,0,0-1.3471,10.7164,39.0591,39.0591,0,0,0,1.3824,10.8183,22.6208,22.6208,0,0,0,4.0786,8.1239,18.0541,18.0541,0,0,0,6.6711,5.1163A21.834,21.834,0,0,0,347.2961,107.3686Z" transform="translate(-2.0277 -2.8999)" style="fill:#fff"></path><path d="M379.6026,118.9124l27.93-37.7473L380.2252,44.25H397.37l18.5976,25.6466L434.3556,44.25H451.5l-27.307,36.9152,27.9982,37.7473H434.9782L415.9675,92.4337l-19.15,26.4787Z" transform="translate(-2.0277 -2.8999)" style="fill:#fff"></path><path d="M31.5966,33.6947H6.0022a3.9669,3.9669,0,0,0-3.0288,6.5287L26.4549,67.9847a3.9669,3.9669,0,0,1-.028,5.1564L3.1244,100.0919a3.9669,3.9669,0,0,0,3.0008,6.5615h23.608a3.9669,3.9669,0,0,0,3.0531-1.4342L59.4483,73.08a3.9669,3.9669,0,0,0,.0271-5.0325Z" transform="translate(-2.0277 -2.8999)" style="fill:#d5af45"></path></svg>